<svg version="1.1" xmlns="http://www.w3.org/2000/svg" xmlns:xlink="http://www.w3.org/1999/xlink" width="48" height="48"><defs><linearGradient x1="9.43498" y1="12.80492" x2="54.0816" y2="49.15069" gradientUnits="userSpaceOnUse" id="color-1"><stop offset="0.06" stop-color="#000000" stop-opacity="0.17"></stop><stop offset="1" stop-color="#000000" stop-opacity="0"></stop></linearGradient><filter id="dropshadow-base"><feColorMatrix type="matrix" values="0 0 0 0 0  0 0 0 0 0  0 0 0 0 0  0 0 0 .8 0"></feColorMatrix> <feOffset dx="0" dy="1"></feOffset> <feGaussianBlur stdDeviation="1"></feGaussianBlur> <feComposite in="SourceGraphic"></feComposite></filter><filter id="dropshadow-banner" x="-10%" y="-10%" width="120%" height="130%"><feColorMatrix type="matrix" values="0 0 0 0 0  0 0 0 0 0  0 0 0 0 0  0 0 0 .4 0"></feColorMatrix> <feOffset dx="0" dy="1"></feOffset> <feGaussianBlur stdDeviation="0.5"></feGaussianBlur> <feComposite in="SourceGraphic"></feComposite></filter></defs><g fill="none" fill-rule="nonzero" stroke="none" stroke-width="none" stroke-linecap="butt" stroke-linejoin="miter" stroke-miterlimit="10" stroke-dasharray="" stroke-dashoffset="0" font-family="none" font-weight="none" font-size="none" text-anchor="none" style="mix-blend-mode: normal"><path d="M2,24c0,-12.15026 9.84974,-22 22,-22c12.15026,0 22,9.84974 22,22c0,12.15026 -9.84974,22 -22,22c-12.15026,0 -22,-9.84974 -22,-22z" id="base 1 21" fill="#1dd9a8" stroke-width="1"></path><path d="M14.16233,32.39449c-0.00284,-0.00284 -0.00567,-0.00571 -0.00849,-0.00859c-0.19258,-0.19711 -0.29866,-0.46285 -0.29479,-0.73839v-4.05781l-4.27825,-4.27825c-0.03713,-0.03713 -0.06852,-0.08062 -0.09238,-0.12932c-0.0791,-0.15405 -0.06987,-0.33862 0.0242,-0.48401l3.91082,-5.80815c0.08919,-0.13197 0.23761,-0.21161 0.39689,-0.21296h3.49456v-3.38808c0,-0.26731 0.2167,-0.48401 0.48401,-0.48401h1.93605c0.13365,0 0.25466,0.05418 0.34225,0.14177c0,0 0,0 0,0l3.73033,3.73033h9.58625c0.12985,-0.00019 0.25291,0.05169 0.34297,0.14174l11.78154,11.78154c-1.87733,8.82435 -9.04534,15.69168 -18.02608,17.12407z" fill="url(#color-1)" stroke-width="1"></path><path transform="translate(-10.40967,-11.19015) scale(1.41748,1.41748)" d="M31.18585,19.80996l2.75559,4.09753c0.07079,0.10473 0.07793,0.24 0.01855,0.3516c-0.05938,0.1116 -0.17555,0.18126 -0.30196,0.18107l-2.86485,0v5.80483c0.05883,0.27262 -0.05403,0.55363 -0.28509,0.70983c-0.23106,0.1562 -0.53388,0.1562 -0.76494,0c-0.23106,-0.1562 -0.34392,-0.4372 -0.28509,-0.70983l0,-5.80483l-4.05997,0v5.78093c0.00273,0.19439 -0.07211,0.38186 -0.20797,0.52092c-0.13586,0.13906 -0.32153,0.21825 -0.51593,0.22005h-6.82921c-0.1944,-0.0018 -0.38007,-0.08099 -0.51593,-0.22005c-0.13586,-0.13906 -0.2107,-0.32653 -0.20797,-0.52092l0,-5.78093h-2.7829c-0.1281,-0.00232 -0.24413,-0.07615 -0.30049,-0.19122c-0.0558,-0.10868 -0.04929,-0.23889 0.01707,-0.34146l2.759,-4.09753c0.06292,-0.0931 0.16763,-0.14929 0.28,-0.15024h2.46534v-2.39022c0,-0.18858 0.15288,-0.34146 0.34146,-0.34146h1.36584c0.18858,0 0.34146,0.15288 0.34146,0.34146l0,2.39022h9.29456c0.11358,-0.00017 0.21981,0.05614 0.28341,0.15024zM18.5723,29.52451h5.38825v-5.08435h-5.38825z" fill="none" stroke-width="0"></path><g fill="#ffffff" stroke-width="1"><g id="Capa_2 1"><g id="icon 1"><path d="M9.91437,23.21119c-0.0884,-0.00079 -0.16963,-0.04879 -0.21297,-0.12584c-0.04819,-0.07698 -0.04819,-0.17471 0,-0.25169l3.90598,-5.80814c0.04556,-0.06741 0.12193,-0.10742 0.20329,-0.10648h19.58313c0.07986,-0.00018 0.15444,0.03984 0.19844,0.10648l3.91082,5.80814c0.04598,0.07759 0.04598,0.17409 0,0.25169c-0.04176,0.07858 -0.12399,0.12717 -0.21297,0.12584z"></path><path d="M33.3938,17.16103l3.90598,5.80814h-27.3854l3.90598,-5.80814h19.57345M33.3938,16.67702h-19.57345c-0.15928,0.00136 -0.3077,0.08099 -0.39689,0.21297l-3.91082,5.80814c-0.09407,0.14539 -0.1033,0.32996 -0.0242,0.48401c0.07988,0.1631 0.24435,0.26776 0.42593,0.27105h27.3854c0.17919,0.00027 0.34386,-0.09848 0.42803,-0.25667c0.08417,-0.15819 0.07405,-0.34994 -0.0263,-0.49839l-3.90598,-5.80814c-0.09016,-0.13338 -0.24073,-0.21321 -0.40173,-0.21297z"></path><path d="M14.90453,32.43161c-0.42581,-0.00795 -0.7653,-0.35825 -0.7599,-0.7841v-9.12847c-0.0054,-0.42585 0.33409,-0.77615 0.7599,-0.7841h9.68024c0.42581,0.00795 0.7653,0.35825 0.7599,0.7841v9.12847c0.0054,0.42585 -0.33409,0.77615 -0.7599,0.7841zM15.87256,22.75137c-0.13532,0.01524 -0.23398,0.13534 -0.22265,0.27105v7.63771c-0.01133,0.1357 0.08733,0.25581 0.22265,0.27105h7.74419c0.13532,-0.01524 0.23398,-0.13534 0.22265,-0.27105v-7.63771c0.01133,-0.1357 -0.08733,-0.25581 -0.22265,-0.27105z"></path><path d="M24.56542,22.00115c0.13446,-0.00033 0.263,0.05529 0.35481,0.15352c0.09181,0.09824 0.13862,0.23024 0.1292,0.36437v9.12847c0.00941,0.13413 -0.03739,0.26613 -0.1292,0.36437c-0.09181,0.09824 -0.22035,0.15385 -0.35481,0.15352h-9.68024c-0.13446,0.00033 -0.263,-0.05529 -0.35481,-0.15352c-0.09181,-0.09824 -0.13862,-0.23024 -0.1292,-0.36437v-9.12847c-0.00941,-0.13413 0.03739,-0.26613 0.1292,-0.36437c0.09181,-0.09824 0.22035,-0.15385 0.35481,-0.15352h9.68024M15.8532,31.19738h7.74419c0.28157,-0.01563 0.49775,-0.25558 0.48401,-0.53725v-7.63771c0.01374,-0.28167 -0.20244,-0.52163 -0.48401,-0.53725h-7.74419c-0.28157,0.01563 -0.49775,0.25558 -0.48401,0.53725v7.63771c-0.01374,0.28167 0.20244,0.52163 0.48401,0.53725M24.56542,21.46874h-9.68024c-0.27556,0.00255 -0.53874,0.1148 -0.73132,0.31192c-0.19257,0.19712 -0.29866,0.46285 -0.29479,0.73839v9.12847c-0.00387,0.27554 0.10221,0.54127 0.29479,0.73839c0.19257,0.19712 0.45576,0.30937 0.73132,0.31192h9.68024c0.27556,-0.00255 0.53874,-0.1148 0.73132,-0.31192c0.19257,-0.19712 0.29866,-0.46285 0.29479,-0.73839v-9.12847c0.00387,-0.27554 -0.10221,-0.54127 -0.29479,-0.73839c-0.19257,-0.19712 -0.45576,-0.30937 -0.73132,-0.31192zM15.91128,23.01758h7.64255v7.64255h-7.63771v-7.63771z"></path><path d="M17.79893,17.40304c-0.13366,0 -0.24201,-0.10835 -0.24201,-0.24201v-3.8721c0,-0.13366 0.10835,-0.24201 0.24201,-0.24201h1.93605c0.13366,0 0.24201,0.10835 0.24201,0.24201v3.8721c0,0.13366 -0.10835,0.24201 -0.24201,0.24201z"></path><path d="M19.73498,13.28894v3.8721h-1.93605v-3.8721h1.93605M19.73498,12.80493h-1.93605c-0.26731,0 -0.48401,0.2167 -0.48401,0.48401v3.8721c0,0.26731 0.2167,0.48401 0.48401,0.48401h1.93605c0.26731,0 0.48401,-0.2167 0.48401,-0.48401v-3.8721c0,-0.26731 -0.2167,-0.48401 -0.48401,-0.48401z"></path><path d="M32.31445,32.29609c-0.3392,-0.00259 -0.61429,-0.27552 -0.61954,-0.6147v-8.37341c0.02846,-0.32229 0.29841,-0.56946 0.62196,-0.56946c0.32355,0 0.5935,0.24716 0.62196,0.56946v8.37341c-0.00529,0.34105 -0.28329,0.61474 -0.62438,0.6147z"></path><path d="M32.31445,23.01274c0.16117,0.00264 0.29043,0.13406 0.29041,0.29525v8.37341c0.01464,0.11361 -0.03776,0.22543 -0.13442,0.28688c-0.09666,0.06146 -0.22015,0.06146 -0.31681,0c-0.09666,-0.06146 -0.14906,-0.17327 -0.13442,-0.28688v-8.37341c0,-0.16306 0.13219,-0.29525 0.29525,-0.29525M32.31445,22.35932c-0.53462,0 -0.96802,0.4334 -0.96802,0.96802v8.35405c-0.08339,0.38644 0.07659,0.78475 0.4041,1.00616c0.32752,0.22141 0.75676,0.22141 1.08428,0c0.32752,-0.22141 0.48749,-0.61972 0.4041,-1.00616v-8.37341c0.00016,-0.52531 -0.41867,-0.95489 -0.94382,-0.96802z"></path></g></g></g><path d="M2,24c0,-12.15026 9.84974,-22 22,-22c12.15026,0 22,9.84974 22,22c0,12.15026 -9.84974,22 -22,22c-12.15026,0 -22,-9.84974 -22,-22z" id="base 1 17 1" fill="none" stroke-width="1"></path><path d="M2,24c0,-12.15026 9.84974,-22 22,-22c12.15026,0 22,9.84974 22,22c0,12.15026 -9.84974,22 -22,22c-12.15026,0 -22,-9.84974 -22,-22z" id="base 1 13 1" fill="none" stroke-width="1"></path><path d="M2,24c0,-12.15026 9.84974,-22 22,-22c12.15026,0 22,9.84974 22,22c0,12.15026 -9.84974,22 -22,22c-12.15026,0 -22,-9.84974 -22,-22z" id="base 1 9 1" fill="none" stroke-width="1"></path><path d="M2,24c0,-12.15026 9.84974,-22 22,-22c12.15026,0 22,9.84974 22,22c0,12.15026 -9.84974,22 -22,22c-12.15026,0 -22,-9.84974 -22,-22z" id="base 1 5 1" fill="none" stroke-width="1"></path><path d="M2,24c0,-12.15026 9.84974,-22 22,-22c12.15026,0 22,9.84974 22,22c0,12.15026 -9.84974,22 -22,22c-12.15026,0 -22,-9.84974 -22,-22z" id="base 1 1 1" fill="none" stroke-width="1"></path><g fill="#000000" stroke-width="1" font-family="Roboto, sans-serif" font-weight="400" font-size="14" text-anchor="start"><g id="Capa_2 1 1"><g id="icon 1 1"></g></g></g><rect x="2" y="2" width="44" height="22" fill="none" stroke-width="1"></rect><path d="M2,24v-22h44v22z" fill="none" stroke-width="1"></path><path d="M2,24v-22h44v22z" fill="none" stroke-width="1"></path><path d="M2,24v-22h44v22z" fill="none" stroke-width="1"></path><path d="M2,24v-22h44v22z" fill="none" stroke-width="1"></path><g fill="#000000" stroke-width="1" font-family="Roboto, sans-serif" font-weight="400" font-size="14" text-anchor="start"><g id="Capa_2 1 1"><g id="icon 1 1"></g></g></g><rect x="2" y="2" width="44" height="22" fill="none" stroke-width="1"></rect><path d="M2,24v-22h44v22z" fill="none" stroke-width="1"></path><path d="M2,24v-22h44v22z" fill="none" stroke-width="1"></path><path d="M2,24v-22h44v22z" fill="none" stroke-width="1"></path><path d="M2,24v-22h44v22z" fill="none" stroke-width="1"></path><g fill="#000000" stroke-width="1" font-family="Roboto, sans-serif" font-weight="400" font-size="14" text-anchor="start"><g id="Capa_2 1 1"><g id="icon 1 1"></g></g></g><rect x="2" y="2" width="44" height="22" fill="none" stroke-width="1"></rect><path d="M2,24v-22h44v22z" fill="none" stroke-width="1"></path><path d="M2,24v-22h44v22z" fill="none" stroke-width="1"></path><path d="M2,24v-22h44v22z" fill="none" stroke-width="1"></path><path d="M2,24v-22h44v22z" fill="none" stroke-width="1"></path><g fill="#000000" stroke-width="1" font-family="Roboto, sans-serif" font-weight="400" font-size="14" text-anchor="start"><g id="Capa_2 1 1"><g id="icon 1 1"></g></g></g><rect x="2" y="2" width="44" height="22" fill="none" stroke-width="1"></rect><path d="M2,24v-22h44v22z" fill="none" stroke-width="1"></path><path d="M2,24v-22h44v22z" fill="none" stroke-width="1"></path><path d="M2,24v-22h44v22z" fill="none" stroke-width="1"></path><path d="M2,24v-22h44v22z" fill="none" stroke-width="1"></path><g fill="#000000" stroke-width="1" font-family="Roboto, sans-serif" font-weight="400" font-size="14" text-anchor="start"><g id="Capa_2 1 1"><g id="icon 1 1"></g></g></g><rect x="2" y="2" width="44" height="22" fill="none" stroke-width="1"></rect><path d="M2,24v-22h44v22z" fill="none" stroke-width="1"></path><path d="M2,24v-22h44v22z" fill="none" stroke-width="1"></path><path d="M2,24v-22h44v22z" fill="none" stroke-width="1"></path><path d="M2,24v-22h44v22z" fill="none" stroke-width="1"></path></g></svg>